<svg width="12" height="12" viewBox="0 0 12 12" fill="none" xmlns="http://www.w3.org/2000/svg">
<path d="M5.99969 8.81247C5.92581 8.81256 5.85264 8.79805 5.78438 8.76978C5.71612 8.7415 5.65413 8.70001 5.60196 8.6477L1.85196 4.8977C1.74789 4.79192 1.68983 4.6493 1.69043 4.50091C1.69104 4.35252 1.75025 4.21038 1.85518 4.10546C1.96011 4.00053 2.10225 3.94131 2.25064 3.94071C2.39903 3.9401 2.54165 3.99816 2.64742 4.10223L5.99969 7.45445L9.35196 4.10223C9.45774 3.99816 9.60035 3.9401 9.74874 3.94071C9.89713 3.94131 10.0393 4.00053 10.1442 4.10546C10.2491 4.21038 10.3083 4.35252 10.3089 4.50091C10.3096 4.6493 10.2515 4.79192 10.1474 4.8977L6.39743 8.6477C6.34525 8.70001 6.28326 8.7415 6.215 8.76978C6.14674 8.79805 6.07357 8.81256 5.99969 8.81247V8.81247Z" fill="#001689"/>
</svg>
