<svg width="12" height="12" viewBox="0 0 12 12" fill="none" xmlns="http://www.w3.org/2000/svg">
<path d="M6.00031 3.18753C6.07419 3.18744 6.14736 3.20195 6.21562 3.23022C6.28388 3.2585 6.34587 3.29999 6.39804 3.3523L10.148 7.1023C10.2521 7.20808 10.3102 7.3507 10.3096 7.49909C10.309 7.64748 10.2497 7.78962 10.1448 7.89454C10.0399 7.99947 9.89775 8.05869 9.74936 8.05929C9.60097 8.0599 9.45835 8.00184 9.35258 7.89777L6.00031 4.54555L2.64804 7.89777C2.54226 8.00184 2.39965 8.05989 2.25126 8.05929C2.10287 8.05869 1.96073 7.99947 1.8558 7.89454C1.75087 7.78961 1.69166 7.64747 1.69105 7.49908C1.69045 7.3507 1.74851 7.20808 1.85258 7.1023L5.60258 3.3523C5.65475 3.29999 5.71674 3.2585 5.785 3.23022C5.85326 3.20195 5.92643 3.18744 6.00031 3.18753Z" fill="#001689"/>
</svg>
