<svg width="24" height="24" viewBox="0 0 24 24" fill="none" xmlns="http://www.w3.org/2000/svg">
<circle cx="12" cy="12" r="12" fill="#001689"/>
<path d="M10.869 12.4C11.2757 12.4867 11.6024 12.69 11.849 13.01C12.0957 13.3233 12.219 13.6833 12.219 14.09C12.219 14.6767 12.0124 15.1433 11.599 15.49C11.1924 15.83 10.6224 16 9.88902 16H6.61902V8.98H9.77902C10.4924 8.98 11.049 9.14333 11.449 9.47C11.8557 9.79667 12.059 10.24 12.059 10.8C12.059 11.2133 11.949 11.5567 11.729 11.83C11.5157 12.1033 11.229 12.2933 10.869 12.4ZM8.32902 11.82H9.44902C9.72902 11.82 9.94236 11.76 10.089 11.64C10.2424 11.5133 10.319 11.33 10.319 11.09C10.319 10.85 10.2424 10.6667 10.089 10.54C9.94236 10.4133 9.72902 10.35 9.44902 10.35H8.32902V11.82ZM9.58902 14.62C9.87569 14.62 10.0957 14.5567 10.249 14.43C10.409 14.2967 10.489 14.1067 10.489 13.86C10.489 13.6133 10.4057 13.42 10.239 13.28C10.079 13.14 9.85569 13.07 9.56902 13.07H8.32902V14.62H9.58902ZM14.9208 10.35V11.77H17.2108V13.09H14.9208V14.63H17.5108V16H13.2108V8.98H17.5108V10.35H14.9208Z" fill="white"/>
</svg>
