<svg width="47" height="46" viewBox="0 0 47 46" fill="none" xmlns="http://www.w3.org/2000/svg">
<path d="M23.3333 0.919861C11.1364 0.919861 1.25098 10.8053 1.25098 22.9999C1.25067 25.8998 1.82164 28.7715 2.93128 31.4508C4.04091 34.13 5.66747 36.5645 7.71806 38.6151C9.76865 40.6657 12.2031 42.2922 14.8824 43.4019C17.5617 44.5115 20.4333 45.0825 23.3333 45.0822C35.5256 45.0822 45.4133 35.1968 45.4133 22.9999C45.4133 10.8053 35.5256 0.919861 23.3333 0.919861ZM25.3941 8.89166C27.5469 8.89166 28.1794 10.1406 28.1794 11.5689C28.1794 13.3514 26.7534 15.0005 24.3177 15.0005C22.2799 15.0005 21.3093 13.977 21.3691 12.2819C21.3691 10.8536 22.5628 8.89166 25.3941 8.89166ZM19.8787 36.2249C18.4067 36.2249 17.3326 35.3302 18.3607 31.4087L20.0466 24.4512C20.3387 23.338 20.387 22.8918 20.0466 22.8918C19.6073 22.8918 17.696 23.66 16.569 24.419L15.8353 23.2161C19.4118 20.2284 23.5242 18.4758 25.2837 18.4758C26.7557 18.4758 26.9995 20.2146 26.2658 22.8918L24.3338 30.2058C23.9911 31.4984 24.1383 31.9446 24.481 31.9446C24.9226 31.9446 26.367 31.411 27.7884 30.2909L28.621 31.4087C25.1411 34.8863 21.3484 36.2249 19.8787 36.2249Z" fill="#DC3545"/>
</svg>
