<svg width="47" height="46" viewBox="0 0 47 46" fill="none" xmlns="http://www.w3.org/2000/svg">
<path d="M23.667 2.875C19.6867 2.875 15.7957 4.05531 12.4861 6.26667C9.17661 8.47804 6.59714 11.6211 5.07393 15.2985C3.55071 18.9759 3.15217 23.0223 3.9287 26.9262C4.70522 30.8301 6.62195 34.416 9.43648 37.2305C12.251 40.0451 15.8369 41.9618 19.7408 42.7383C23.6447 43.5148 27.6911 43.1163 31.3685 41.5931C35.0459 40.0699 38.189 37.4904 40.4003 34.1809C42.6117 30.8713 43.792 26.9803 43.792 23C43.7859 17.6644 41.6637 12.5491 37.8908 8.7762C34.118 5.00335 29.0026 2.88109 23.667 2.875ZM23.667 40.25C19.092 40.25 14.7044 38.4326 11.4694 35.1976C8.23441 31.9626 6.417 27.575 6.417 23C6.417 18.425 8.23441 14.0374 11.4694 10.8024C14.7044 7.56741 19.092 5.75 23.667 5.75V23L35.8584 35.1914C34.2596 36.796 32.3595 38.0689 30.2674 38.937C28.1752 39.8051 25.9321 40.2513 23.667 40.25Z" fill="#FFC107"/>
</svg>
