<svg width="40" height="40" viewBox="0 0 40 40" fill="none" xmlns="http://www.w3.org/2000/svg">
<circle cx="20" cy="20" r="20" fill="#001689"/>
<path d="M18.1904 20.24C18.8411 20.3787 19.3638 20.704 19.7584 21.216C20.1531 21.7173 20.3504 22.2933 20.3504 22.944C20.3504 23.8827 20.0198 24.6293 19.3584 25.184C18.7078 25.728 17.7958 26 16.6224 26H11.3904V14.768H16.4464C17.5878 14.768 18.4784 15.0293 19.1184 15.552C19.7691 16.0747 20.0944 16.784 20.0944 17.68C20.0944 18.3413 19.9184 18.8907 19.5664 19.328C19.2251 19.7653 18.7664 20.0693 18.1904 20.24ZM14.1264 19.312H15.9184C16.3664 19.312 16.7078 19.216 16.9424 19.024C17.1878 18.8213 17.3104 18.528 17.3104 18.144C17.3104 17.76 17.1878 17.4667 16.9424 17.264C16.7078 17.0613 16.3664 16.96 15.9184 16.96H14.1264V19.312ZM16.1424 23.792C16.6011 23.792 16.9531 23.6907 17.1984 23.488C17.4544 23.2747 17.5824 22.9707 17.5824 22.576C17.5824 22.1813 17.4491 21.872 17.1824 21.648C16.9264 21.424 16.5691 21.312 16.1104 21.312H14.1264V23.792H16.1424ZM24.6733 16.96V19.232H28.3373V21.344H24.6733V23.808H28.8173V26H21.9373V14.768H28.8173V16.96H24.6733Z" fill="white"/>
</svg>
