<svg width="24" height="24" viewBox="0 0 24 24" fill="none" xmlns="http://www.w3.org/2000/svg">
<path d="M3 12.2031H21V13.7031H16.6342C16.8711 14.2003 16.9906 14.7452 16.9836 15.296C16.9977 15.8184 16.8855 16.3366 16.6567 16.8066C16.428 17.2765 16.0893 17.6844 15.6694 17.9957C14.6579 18.7073 13.4378 19.0609 12.2025 19.0001C11.3 19.0062 10.4062 18.8226 9.57916 18.4611C8.82387 18.1478 8.16917 17.633 7.68652 16.9729C7.24212 16.3428 7.00762 15.5886 7.01636 14.8175V14.7041H7.30359V14.703H7.64508V14.7041H9.02V14.8175C9.00433 15.1688 9.07382 15.5188 9.22253 15.8376C9.37125 16.1563 9.59479 16.4344 9.87413 16.6481C10.5515 17.1304 11.372 17.3698 12.2025 17.3274C12.9356 17.3753 13.6645 17.1836 14.2792 16.7812C14.507 16.6127 14.6901 16.3909 14.8124 16.1352C14.9346 15.8796 14.9923 15.5978 14.9804 15.3147C14.9964 15.0411 14.9459 14.7677 14.8332 14.518C14.7205 14.2682 14.5491 14.0494 14.3335 13.8803C14.2451 13.8162 14.1533 13.7571 14.0585 13.703H3V12.2031ZM16.3447 7.05992C15.9232 6.40493 15.3271 5.8807 14.6236 5.54631C13.8394 5.17272 12.9793 4.98577 12.1107 5.00011C10.8996 4.94813 9.70883 5.32415 8.74719 6.06224C8.33435 6.38109 8.00134 6.79159 7.77448 7.26131C7.54762 7.73103 7.43313 8.24708 7.44006 8.76866C7.43656 9.26295 7.54659 9.75145 7.76166 10.1965H10.3583C10.275 10.1429 10.173 10.0908 10.1056 10.0359C9.90219 9.88579 9.73702 9.6898 9.62358 9.46385C9.51014 9.23789 9.45164 8.98835 9.45282 8.73552C9.43773 8.44691 9.49242 8.15892 9.61226 7.89593C9.73209 7.63294 9.91354 7.4027 10.1412 7.22472C10.7173 6.82519 11.4109 6.63065 12.1107 6.67229C12.8717 6.62391 13.6231 6.86251 14.2167 7.34099C14.465 7.57478 14.6594 7.85979 14.7865 8.17624C14.9136 8.49269 14.9703 8.83301 14.9527 9.17357V9.28698H16.9559V9.17357C16.9592 8.42497 16.7471 7.69122 16.3447 7.05992Z" fill="black"/>
</svg>
