<svg width="30" height="30" viewBox="0 0 30 30" fill="none" xmlns="http://www.w3.org/2000/svg">
<circle cx="15" cy="15" r="15" fill="white"/>
<path d="M13.1428 14.68C13.6308 14.784 14.0228 15.028 14.3188 15.412C14.6148 15.788 14.7628 16.22 14.7628 16.708C14.7628 17.412 14.5148 17.972 14.0188 18.388C13.5308 18.796 12.8468 19 11.9668 19H8.04283V10.576H11.8348C12.6908 10.576 13.3588 10.772 13.8388 11.164C14.3268 11.556 14.5708 12.088 14.5708 12.76C14.5708 13.256 14.4388 13.668 14.1748 13.996C13.9188 14.324 13.5748 14.552 13.1428 14.68ZM10.0948 13.984H11.4388C11.7748 13.984 12.0308 13.912 12.2068 13.768C12.3908 13.616 12.4828 13.396 12.4828 13.108C12.4828 12.82 12.3908 12.6 12.2068 12.448C12.0308 12.296 11.7748 12.22 11.4388 12.22H10.0948V13.984ZM11.6068 17.344C11.9508 17.344 12.2148 17.268 12.3988 17.116C12.5908 16.956 12.6868 16.728 12.6868 16.432C12.6868 16.136 12.5868 15.904 12.3868 15.736C12.1948 15.568 11.9268 15.484 11.5828 15.484H10.0948V17.344H11.6068ZM18.005 12.22V13.924H20.753V15.508H18.005V17.356H21.113V19H15.953V10.576H21.113V12.22H18.005Z" fill="#001689"/>
</svg>
