<svg width="213" height="56" viewBox="0 0 213 56" fill="none" xmlns="http://www.w3.org/2000/svg">
<g clip-path="url(#clip0_150_21919)">
<path d="M12.7608 24.2671C13.2576 24.3912 14.0871 24.6814 15.2491 25.1377C16.5054 25.6439 17.7052 26.28 18.8291 27.0356C20.0591 27.8532 21.1413 28.8736 22.0296 30.0533C22.944 31.2576 23.4012 32.689 23.4012 34.3473C23.4177 35.708 23.1748 37.0594 22.6857 38.3293C22.2093 39.5492 21.4765 40.6526 20.5369 41.5651C19.5973 42.4775 18.4727 43.1778 17.2392 43.6185C15.911 44.1152 14.4174 44.3643 12.7585 44.3658C10.335 44.3859 7.93221 43.9197 5.69228 42.9947C3.51443 42.0806 1.76179 40.9604 0.434351 39.6342L5.60084 34.4707C6.67986 35.7573 7.83127 36.5872 9.05507 36.9605C10.2789 37.3337 11.3076 37.5203 12.1413 37.5203C13.4275 37.5203 14.382 37.2716 15.0045 36.7742C15.6271 36.2768 15.9384 35.675 15.9384 34.9689C15.9384 34.4707 15.7304 34.0365 15.3166 33.6628C14.8806 33.2767 14.3865 32.9616 13.8524 32.7293C13.2989 32.4831 12.7253 32.2851 12.1378 32.1374C11.556 31.9935 11.0794 31.8575 10.7067 31.733C10.2084 31.5684 9.36788 31.2786 8.18523 30.8634C6.91443 30.4048 5.70179 29.7989 4.57211 29.0581C3.33769 28.2586 2.25423 27.2475 1.37163 26.0713C0.457211 24.8685 0 23.4166 0 21.7156C0 19.9742 0.300617 18.4705 0.90185 17.2045C1.46283 15.9944 2.28215 14.9219 3.30221 14.0623C4.31021 13.2264 5.47648 12.6022 6.7313 12.2272C8.02246 11.832 9.36557 11.6325 10.7159 11.6353C12.832 11.6353 14.6266 11.8844 16.0996 12.3826C17.5725 12.8808 18.7864 13.4201 19.7413 14.0006C20.7631 14.6547 21.6868 15.4507 22.4845 16.3647L17.2414 21.5956C16.4116 20.517 15.4972 19.7285 14.4982 19.2304C13.5137 18.7352 12.4261 18.4796 11.324 18.4842C10.4266 18.4906 9.54273 18.7033 8.74074 19.1058C7.88957 19.5202 7.46398 20.1841 7.46398 21.0974C7.46149 21.3375 7.51014 21.5754 7.60671 21.7953C7.70328 22.0151 7.84555 22.2119 8.02406 22.3726C8.42487 22.7433 8.8896 23.0383 9.3957 23.2433C9.95341 23.4784 10.5262 23.6762 11.1102 23.8351C11.7115 23.9989 12.2617 24.1429 12.7608 24.2671Z" fill="white"/>
<path d="M43.1356 11.5736C45.1679 11.5736 47.0147 11.9572 48.6759 12.7243C50.3046 13.4697 51.7572 14.551 52.9382 15.8973C54.1408 17.2766 55.0716 18.8708 55.6815 20.5958C56.3338 22.4333 56.6603 24.3706 56.6462 26.3203V43.5557H49.1731V26.3203C49.18 25.3584 48.9894 24.4052 48.613 23.5198C48.2297 22.6355 47.6803 21.833 46.9945 21.1557C45.5832 19.7457 43.882 19.0407 41.8909 19.0407C39.8563 19.0407 38.1341 19.7457 36.7244 21.1557C35.3146 22.5657 34.6094 24.2872 34.6086 26.3203V43.5557H27.1389V0H34.6086V14.9341C35.7392 13.9311 37.0206 13.1122 38.4058 12.5072C39.8155 11.8848 41.3921 11.5736 43.1356 11.5736Z" fill="white"/>
<path d="M75.8765 11.5737C78.0778 11.5574 80.2592 11.9914 82.2866 12.8488C86.2325 14.5113 89.3716 17.6504 91.0331 21.5956C91.8752 23.6165 92.3087 25.784 92.3087 27.9732C92.3087 30.1623 91.8752 32.3299 91.0331 34.3507C89.3703 38.2939 86.2314 41.4313 82.2866 43.0929C80.2544 43.9355 78.076 44.3692 75.8759 44.3692C73.6759 44.3692 71.4974 43.9355 69.4652 43.0929C65.521 41.4303 62.3825 38.2933 60.7188 34.3507C59.8767 32.3299 59.4431 30.1623 59.4431 27.9732C59.4431 25.784 59.8767 23.6165 60.7188 21.5956C62.3819 17.6524 65.5206 14.5148 69.4652 12.8522C71.4928 11.9937 73.6746 11.5586 75.8765 11.5737ZM75.8765 19.0407C73.3855 19.0407 71.2689 19.9118 69.527 21.6539C67.785 23.396 66.9136 25.5114 66.9129 28C66.9129 30.4475 67.7842 32.5423 69.527 34.2844C70.3361 35.1426 71.3247 35.8117 72.4223 36.244C73.5213 36.6804 74.6939 36.9023 75.8765 36.8976C77.0492 36.9038 78.2119 36.6818 79.2999 36.244C80.398 35.7965 81.3933 35.1297 82.2249 34.2844C83.9684 32.5431 84.8397 30.4483 84.839 28C84.839 25.5114 83.9676 23.396 82.2249 21.6539C80.3983 19.9118 78.2822 19.0407 75.8765 19.0407Z" fill="white"/>
<path d="M112.786 11.5737C115.072 11.5737 117.178 11.9987 119.105 12.8488C120.994 13.6717 122.698 14.8675 124.115 16.3647C125.539 17.881 126.659 19.6568 127.413 21.5956C128.992 25.7008 128.992 30.2455 127.413 34.3507C126.659 36.2878 125.539 38.0621 124.115 39.5771C122.698 41.0732 120.993 42.2678 119.104 43.0895C117.173 43.9396 115.066 44.3651 112.785 44.3658C110.254 44.3658 108.034 43.8886 106.125 42.9341L108.801 36.2761C109.87 36.7044 111.012 36.9157 112.163 36.8976C113.338 36.9045 114.503 36.6825 115.592 36.2441C116.69 35.7965 117.686 35.1297 118.517 34.2845C120.261 32.5431 121.132 30.4483 121.131 28C121.131 25.5114 120.26 23.396 118.517 21.6539C116.688 19.9118 114.572 19.0407 112.169 19.0407C109.679 19.0407 107.562 19.9118 105.82 21.6539C104.078 23.396 103.207 25.5114 103.205 28V56H95.731V12.3826H103.201V14.8713C104.466 13.8815 105.872 13.0848 107.372 12.5072C108.944 11.8848 110.749 11.5737 112.786 11.5737Z" fill="white"/>
<path d="M132.02 43.5557V0H139.489V43.5557H132.02Z" fill="white"/>
<path d="M175.778 12.3826V43.5557H168.307V28C168.307 25.5114 167.436 23.396 165.693 21.6539C163.951 19.9118 161.834 19.0407 159.345 19.0407C156.966 19.0367 154.683 19.9765 152.997 21.6539C151.252 23.3953 150.381 25.5106 150.381 28C150.381 30.4475 151.253 32.5423 152.997 34.2845C153.805 35.1429 154.793 35.8121 155.891 36.2441C156.99 36.6802 158.162 36.9021 159.345 36.8976C160.496 36.9156 161.638 36.7043 162.707 36.2761L165.382 42.9341C163.474 43.8871 161.253 44.3643 158.722 44.3658C156.436 44.3658 154.33 43.9404 152.404 43.0895C150.514 42.267 148.81 41.0711 147.393 39.5737C145.969 38.0589 144.849 36.2846 144.095 34.3473C142.517 30.2418 142.517 25.6977 144.095 21.5922C144.849 19.6544 145.969 17.8796 147.393 16.3647C148.81 14.8672 150.514 13.6714 152.404 12.8488C154.334 11.9987 156.44 11.5737 158.722 11.5737C160.756 11.5737 162.561 11.8848 164.138 12.5072C165.637 13.0851 167.042 13.8817 168.307 14.8713V12.3826H175.778Z" fill="white"/>
<path d="M197.188 11.6353C199.475 11.6353 201.581 12.0604 203.507 12.9105C205.397 13.7341 207.101 14.9303 208.518 16.4275C209.942 17.9427 211.061 19.7169 211.816 21.6539C212.614 23.6956 213.016 25.8707 213 28.0628C213.012 30.2342 212.611 32.3881 211.816 34.409C211.061 36.3461 209.942 38.1203 208.518 39.6353C207.102 41.1329 205.397 42.3291 203.507 43.1523C201.578 44.0009 199.471 44.426 197.188 44.4275C194.74 44.4275 192.52 43.9503 190.528 42.9958L193.205 36.3354C194.273 36.7642 195.416 36.9759 196.567 36.9582C199.097 36.9582 201.213 36.0871 202.915 34.345C204.659 32.6029 205.53 30.5081 205.529 28.0606C205.529 25.5712 204.658 23.4554 202.915 21.7133C201.172 19.9712 199.056 19.1001 196.567 19.1001C194.159 19.1001 192.043 19.9712 190.218 21.7133C188.474 23.4562 187.603 25.5719 187.604 28.0606V43.6185H180.133V0H187.604V14.9341C188.869 13.9433 190.274 13.1461 191.774 12.5689C193.351 11.9473 195.155 11.6361 197.188 11.6353Z" fill="white"/>
</g>
<defs>
<clipPath id="clip0_150_21919">
<rect width="213" height="56" fill="white"/>
</clipPath>
</defs>
</svg>
